<svg xmlns="http://www.w3.org/2000/svg" xmlns:xlink="http://www.w3.org/1999/xlink" xmlns:drawsvg="http://www.drawsvg.org" width="700px" height="600px" viewBox="271.99627685546875 207.71664428710938 204.0113525390625 174.32937622070312" preserveAspectRatio="xMidYMid meet" ><defs id="drawsvgConstraints"><defs id="constraint1" drawsvg:constraint="{'type':'connectPoints', 'ids':['e3_shape','e19_curve3'], 'priority':0, 'index-p1':9, 'index-p2':5}"/></defs><rect id="svgEditorBackground" x="0" y="0" width="840" height="460" style="fill:none; stroke: none;"/><defs id="svgEditorDefs"><polygon id="svgEditorIconDefs" style="fill:rosybrown;"/><polygon id="svgEditorShapeDefs" style="fill:rosybrown;stroke:black;vector-effect:non-scaling-stroke;stroke-width:1px;"/><linearGradient gradientUnits="objectBoundingBox" id="lgrd2-fire" spreadMethod="pad" x1="0%" x2="100%" y1="0%" y2="0%"><stop offset="0%" style="stop-color:rgb(255,255,0);stop-opacity:1"/><stop offset="100%" style="stop-color:rgb(255,0,0);stop-opacity:1"/></linearGradient><pattern height="10" id="hatch-black-45" patternTransform="rotate(45) scale(0.4)" patternUnits="userSpaceOnUse" viewBox="0 0 10 10" width="10" x="0" y="0"><line style="stroke:black;stroke-width:1px;" x1="0" x2="10" y1="5" y2="5"/></pattern><pattern height="10" id="hatch-green-dash-120" patternTransform="rotate(120) scale(0.4)" patternUnits="userSpaceOnUse" viewBox="0 0 24 10" width="24" x="0" y="0"><line style="stroke:green;stroke-width:1px;stroke-dasharray:4,4;" x1="0" x2="24" y1="5" y2="5"/></pattern><path id="svgEditorClosePathDefs" style="stroke:black;stroke-width:1px;fill:rosybrown;"/><linearGradient id="gradient1"/><linearGradient gradientUnits="objectBoundingBox" id="lgrd2-black-white" spreadMethod="pad" x1="0%" x2="100%" y1="0%" y2="100%" gradientTransform="rotate(80.8815)"><stop offset="0%" stop-color="rgb(28,26,26)" style="stop-opacity: 0.697;"/><stop offset="100%" stop-color="rgb(150,150,147)" style="stop-opacity: 0.788;"/></linearGradient></defs><path d="M-7.006285-1.846197v0.398509q-1.423761,7.125332,2.456086,7.177215t3.327296-6.758344v0.490147q0.792858,1.267696-4.257765,0.905019t0.1,1.292772q0.494448-0.12198,0.58714,0.502091t2.529514-1.007972t-0.262763-2.454925t-5.181301,0.527234Z" style="fill:#ecbcb4; vector-effect: non-scaling-stroke; stroke-width: 1px;" id="e3_shape" transform="matrix(16.1159 0 0 16.1159 448.955 271.44)" drawsvg:constraints="['constraint1']"/><path d="M332.44229682167486,278.784541q-0.9,-20.078,-10.885,-9.648q-8.007,11.996,9.647,35.873q4.103,1.141,1.237,-31.174Z" style="fill:#ecbcb4; stroke-width: 1px;" id="e9_area2"/><path d="M349.557822,338.088047q29.704375,32.465359,56.202986,.1" style="fill: black; stroke-width: 0.4px; stroke-opacity: 0.6;" id="e9_arc2"/><path d="M339.7928096433497,283.34826988111655q13.801,4.968,26.498,-0.552" style="fill:none;stroke:rosybrown;stroke-width:3px;stroke-opacity:0.5;" id="e15_arc2"/><ellipse id="e16_ellipse" cx="376.7300109863281" cy="317.55807203719615" style="fill: rosybrown; stroke-width: 1px;" rx="9.27139" ry="7.00815"/><rect x="364.03399658203125" y="306.51788038680553" style="fill:#ecbcb4; stroke-width: 1px;" id="e17_rectangle" width="24.289" height="11.041"/><path d="M392.18752847986093,283.3482698811165q13.801,4.968,26.498,-0.552" style="fill:none;stroke:rosybrown;stroke-width:3px;stroke-opacity:0.5;" id="e3_arc2"/><polyline style="fill: rosybrown; stroke-width: 1px;" id="e18_polyline" points="366.843 270.919 335.929 276.44 341.45 269.815 370.707 264.847"/><polyline style="fill: rosybrown; stroke-width: 1px;" id="e4_polyline" points="363.498 270.083 332.584 275.604 338.105 268.979 367.362 264.011" transform="matrix(-1 0 0 1 755.118 0)"/><path d="M-9.75052-8.497233l-1.324156,1.158064h23.068l-1.421795-1.158063Z" style="fill:white; vector-effect: non-scaling-stroke; stroke-width: 1px;" id="e19_shape" transform="matrix(2.13913 0 0 -2.13913 376.869 322.389)"/><path d="M338.260619,384.827566c63.882347,21.701165,119.268094,22.501092,184.573269-12.868856c-23.273536-11.148394-41.583665-20.388132-67.360214-25.336862c-7.696101,0.336013-26.984625-3.219377-35.032612,8.661788c-8.587296-10.564402-23.611783-9.989654-33.666102-10.883938c-36.161594,1.606036-54.953044,13.0271-87.820767,20.364935" style="fill: red; stroke-width: 1px;" id="e26_curve3" transform="matrix(0.125 0 0 0.125 326.206 304.388)"/><circle id="e27_circle" cx="342.179931640625" cy="278.2991656657585" style="fill:#C0C0C0; stroke-width: 1px;" r="2.19864" transform="matrix(0.5 0 0 0.5 158.28 140.286)"/><path d="M367.16,264.472q3.972-0.314,1.881,4.181" style="fill:none;stroke:#ecbcb4;stroke-width:1.6px;" id="e1_arc2"/><path d="M364.65133688111655,262.79986505944174q4.076517,-0.523033,1.671966,5.330686" style="fill:none;stroke:#ecbcb4;stroke-width:1.6px;" id="e4_arc2" transform="matrix(-1 0 0 1 755.526 0)"/><path d="M326.79258,266.279423c-4.772804,-2.80721,-5.126005,-16.532052,7.639325,-23.308159c-17.997779,2.933551,49.347121,-21.903678,47.660275,-11.582055c18.658221,-2.169199,40.649598,-3.044458,50.975876,7.739469c4.319157,2.694551,-4.728066,34.463872,-3.403176,25.929547c-7.367596,-6.220013,-18.490817,-12.288135,-21.4311789822788,-14.596047901735366c-26.593984,6.665979,-78.595141,13.393148,-77.6963230177212,10.497497901735366Z" style="fill:black; stroke-width: 1px;" id="e19_curve3" drawsvg:constraints="['constraint1']"/><path d="M329.933892,277.530339q-6.334877-21.332203-12.55727-9.229933q-8.007,11.996,11.737337,37.127202q2.012663-0.113202,1.237-33.264337Z" style="fill:#ecbcb4; stroke-width: 1px;" id="e1_area2" transform="matrix(-1 0 0 1 757.196 -0.836135)"/></svg>